<?xml version="1.0" encoding="utf-8"?>
<!-- Generator: Adobe Illustrator 24.0.0, SVG Export Plug-In . SVG Version: 6.00 Build 0)  -->
<svg version="1.1" id="Layer_1" xmlns="http://www.w3.org/2000/svg" xmlns:xlink="http://www.w3.org/1999/xlink" x="0px" y="0px"
	 viewBox="0 0 1366 768" style="enable-background:new 0 0 1366 768;" xml:space="preserve">
<style type="text/css">
	.st0{fill:#1F7534;}
	.st1{fill:#F08B23;}
	.st2{fill:#24742D;}
	.st3{fill:#226E2D;}
	.st4{fill:none;}
</style>
<g>
	<path class="st0" d="M779.37,411.22c-5.99-17.13-10.25-36.27-4.38-67.14c0.01-0.05,0.02-0.1,0.04-0.16
		c8.36-30.8,25.02-56.64,55.98-73.92c13.28-7.06,27.74-10.31,43-11c22.43-1.24,43.02,5.78,62,20c25.13,18.09,37.44,43.59,43,73
		c3.09,22.18,1.65,41.9-4.34,59.15c-0.34,0.98-1.48,1.41-2.4,0.93c-17.51-9.08-35.4-15.36-53.79-17.89
		c-0.84-0.12-1.47-0.83-1.47-1.68V373c0.09-1.85,1.14-3.1,2.86-3.93c0.09-0.05,0.19-0.1,0.27-0.16
		c10.25-7.46,14.09-21.92,13.88-40.8c0-0.07-0.01-0.14-0.01-0.21c-2.72-22.91-9.26-36.62-20.99-37.9
		c-9.76-1.75-17.43,10.49-22.98,36.91c-0.01,0.06-0.02,0.12-0.03,0.18c-2.69,23.1,3.45,35.59,15.08,41.46
		c0.57,0.29,0.95,0.85,0.98,1.48l0.86,18.98c0.05,1.04-0.85,1.88-1.89,1.77c-18.79-1.97-36.47-1.68-53.05,0.9
		c-1.04,0.16-1.97-0.63-1.97-1.68v-14.63c0-0.25,0.05-0.49,0.15-0.72c0.69-1.5,1.54-2.81,2.84-3.72
		c9.48-6.69,9.99-12.11,10.94-14.77c0.04-0.11,0.07-0.22,0.09-0.34c2.02-14.41,1.2-33.55-0.93-54.86c-0.07-0.7-0.56-1.3-1.24-1.49
		c-0.82-0.23-1.69-0.19-2.58,0.06c-0.75,0.21-1.27,0.88-1.27,1.66v42.66c0,0.11-0.01,0.22-0.03,0.32c-0.51,2.96-1.86,4.53-3.97,4.84
		c-3.71,0.83-5.88-0.89-6-6c0.63-16.63,0.79-32.06-0.83-42.93c-0.1-0.69-0.63-1.24-1.32-1.4c-0.84-0.2-1.69-0.28-2.53-0.12
		c-0.77,0.14-1.33,0.82-1.37,1.61L840,344c-0.37,2.08-1.45,3.31-3,4c-1.87,0.54-3.43-0.94-4.81-3.63c-0.12-0.24-0.19-0.52-0.19-0.79
		v-42.45c0-0.75-0.49-1.4-1.2-1.63c-0.93-0.31-1.85-0.39-2.75-0.08c-0.64,0.22-1.07,0.83-1.12,1.5c-1.2,18.36-2.33,36.37-1.94,46.08
		c0.86,12.21,4.84,20.24,12,24c0.97,0.36,1.58,1.47,2,3c0.98,6.12,1.1,12.08,0.19,17.88c-0.11,0.68-0.63,1.22-1.3,1.38
		c-18.78,4.46-37.52,10.09-56.18,18.92C780.8,412.61,779.7,412.17,779.37,411.22z"/>
	<path class="st1" d="M782,421.05c10.34-7.9,42.6-16.36,69.44-19.28c7.77-0.85,31.96-4.14,63.65,1.75c28.82,5.36,40,8.66,56.9,17.53
		c-4.82,9.64-20.25,42.95-20.25,42.95c-6.75-2.63-6.75-2.63-9.64-4.38c0-7.89,0.96-15.78,0-28.93c-1.07-3.86-5.12-8.95-11.57-8.77
		c-6.36,0.18-10.97,5.43-11.57,9.64v18.41c-2.14-0.33-13.01-2.94-18.32-3.51v-14.9c-1.93-7.64-11.39-15.78-23.15-15.78
		c-11.75,0-21.13,8.15-23.15,15.78v15.78c-4.82,0.88-10.61,2.63-18.32,3.51v-20.16c-1.98-3.91-6.48-7.84-11.57-7.89
		c-5.46-0.05-10.41,4.37-12.54,8.77c0,11.4,0.96,17.53,0.96,28.05c-3.86,2.63-5.79,3.51-9.64,4.38
		C801.29,460.49,784.89,428.06,782,421.05z"/>
	<path class="st2" d="M808.48,472.85c33.69-17.93,88.64-23.13,131.43-8.75c0.37,0.13,0.27,0.59-0.14,0.59
		c-11.99,0.06-31.78,0.52-33.22,0.65c-3.96,0.36-55.73,5.11-81.45,29.8c-0.16,0.13-0.42,0.13-0.57-0.01
		c-6.08-5.96-11.14-13.51-16.18-21.89C808.26,473.1,808.32,472.93,808.48,472.85z"/>
	<path class="st3" d="M826.72,501.38c16.6-15.8,26.53-17.27,45.16-25.83c0.02-0.01,0.08-0.03,0.08-0.03
		c10.11-3.06,48.87-11.07,63.75-6.41c0.61,0.08,0.59,0.9-0.03,0.95c-39.78,2.97-78.96,26.02-85.37,41.79
		c-1.15,4.53,2.91,6.06,6.74,4.95c0.1-0.03,0.19-0.09,0.26-0.17c22.13-26.74,67.7-44.37,94.02-43.66c0.35,0.01,0.58,0.27,0.5,0.58
		c-2.21,8.57-43.17,61.27-74.8,90.04c-0.2,0.18-0.53,0.18-0.73,0c-25.04-22.07-35.41-41.76-49.63-61.6
		C826.52,501.79,826.55,501.54,826.72,501.38z"/>
	<path class="st4" d="M805,500"/>
</g>
</svg>
